<?xml version="1.0" encoding="utf-8"?>
<!-- Svg Vector Icons : http://www.onlinewebfonts.com/icon -->
<!DOCTYPE svg PUBLIC "-//W3C//DTD SVG 1.1//EN" "http://www.w3.org/Graphics/SVG/1.1/DTD/svg11.dtd">
<svg version="1.1" xmlns="http://www.w3.org/2000/svg" xmlns:xlink="http://www.w3.org/1999/xlink" x="0px" y="0px" viewBox="0 0 256 256" enable-background="new 0 0 256 256" xml:space="preserve">
<metadata> Svg Vector Icons : http://www.onlinewebfonts.com/icon </metadata>
<g><g><g><path fill="#000000" d="M210.3,15.9c-4.7-3.9-11.4-5.9-20.7-5.9c-13.4,0-25.8,4-36.7,11.9c-10.6,7.7-20.8,20.3-30.1,37.6c-3.1,5.7-5.3,7.8-6.4,8.6H97.7c-7.7,0-13.9,6.2-13.9,13.9c0,6.4,4.3,11.7,10.2,13.3l0,0.1h0.4c1.1,0.3,2.2,0.5,3.4,0.5h13.4l-23.2,90.8c-5.1,19.7-7.3,26.8-8.3,29.3c-1,2.6-2.3,5-3.9,7.2c-0.3-3.8-1.9-7.2-4.6-9.8c-3-2.9-7.2-4.4-12.3-4.4c-5.8,0-10.7,1.7-14.4,5.1c-3.9,3.5-5.9,7.9-5.9,12.9c0,3.7,1.2,9,7,13.7c4.4,3.5,10.5,5.2,18.9,5.2c12.1,0,23.1-3.3,32.6-9.6c9.3-6.3,17.5-15.9,24.2-28.8c6.7-12.5,13.3-32,20.2-59.5L154.4,96h21.3c7.7,0,13.9-6.2,13.9-13.9c0-7.7-6.2-13.9-13.9-13.9h-13.9c4.5-15.3,10.1-26.9,16.6-34.5c1.6-1.9,3.7-4,6-5.4c-1.1,2.4-1.6,4.8-1.6,7.1c0,4.4,1.7,8.3,4.9,11.4c3.2,3.1,7.2,4.6,12,4.6c5,0,9.5-1.9,12.9-5.5c3.4-3.5,5.1-8.3,5.1-14C217.6,25.5,215.1,19.9,210.3,15.9z"/></g><g></g><g></g><g></g><g></g><g></g><g></g><g></g><g></g><g></g><g></g><g></g><g></g><g></g><g></g><g></g></g></g>
</svg>