<svg width="24" height="24" viewBox="0 0 24 24" fill="none" xmlns="http://www.w3.org/2000/svg">
<mask id="mask0_607_834" style="mask-type:alpha" maskUnits="userSpaceOnUse" x="0" y="0" width="24" height="24">
<rect width="24" height="24" fill="#D9D9D9"/>
</mask>
<g mask="url(#mask0_607_834)">
<path d="M18 9.5C18.2761 9.5 18.5 9.27614 18.5 9C18.5 8.72386 18.2761 8.5 18 8.5V9.5ZM12 9.5L18 9.5V8.5L12 8.5V9.5Z" fill="black"/>
<path d="M21 12.5C21.2761 12.5 21.5 12.2761 21.5 12C21.5 11.7239 21.2761 11.5 21 11.5V12.5ZM12 12.5L21 12.5V11.5L12 11.5V12.5Z" fill="black"/>
<path d="M19 21.5C19.2761 21.5 19.5 21.2761 19.5 21C19.5 20.7239 19.2761 20.5 19 20.5V21.5ZM3 21.5H19V20.5H3V21.5Z" fill="black"/>
<path d="M21 18.5C21.2761 18.5 21.5 18.2761 21.5 18C21.5 17.7239 21.2761 17.5 21 17.5V18.5ZM3 18.5H21V17.5H3V18.5Z" fill="black"/>
<path d="M21 15.5C21.2761 15.5 21.5 15.2761 21.5 15C21.5 14.7239 21.2761 14.5 21 14.5V15.5ZM3 15.5H21V14.5H3V15.5Z" fill="black"/>
<path d="M4.86932 14H3.76136L8.41477 5.27273H9.50568L11.2614 14H10.1534L8.77273 6.65341H8.70455L4.86932 14ZM5.84091 10.5909H10.3068L10.1534 11.5284H5.6875L5.84091 10.5909Z" fill="black"/>
</g>
</svg>
